<?xml version="1.0" standalone="no"?>
<!DOCTYPE svg PUBLIC "-//W3C//DTD SVG 20010904//EN"
 "http://www.w3.org/TR/2001/REC-SVG-20010904/DTD/svg10.dtd">
<svg version="1.0" xmlns="http://www.w3.org/2000/svg"
 width="30.000000pt" height="30.000000pt" viewBox="0 0 32.000000 32.000000"
 preserveAspectRatio="xMidYMid meet">

<g transform="translate(0.000000,32.000000) scale(0.100000,-0.100000)"
fill="#000000" stroke="none">
<path d="M30 306 c-20 -9 -20 -16 -18 -155 l3 -146 119 -3 c118 -3 120 -2 148
25 28 27 28 28 28 149 0 118 -1 123 -22 130 -34 10 -234 10 -258 0z m270 -161
c0 -78 -2 -85 -20 -85 -13 0 -22 -9 -26 -25 l-6 -26 -112 3 -111 3 -3 108 -3
107 141 0 140 0 0 -85z"/>
<path d="M41 128 c5 -18 9 -34 9 -35 0 -2 6 -3 14 -3 8 0 17 8 19 18 4 16 5
16 6 0 2 -30 30 -20 40 15 l9 32 1 -32 1 -33 65 0 c53 0 66 3 75 19 16 31 2
51 -36 51 -31 0 -34 -3 -34 -29 0 -25 -3 -28 -22 -23 -21 5 -21 6 -2 13 19 7
19 7 0 15 -19 7 -19 8 0 15 13 5 4 8 -28 8 -36 1 -48 -3 -51 -16 -4 -17 -5
-17 -6 0 0 9 -7 17 -15 17 -8 0 -17 -8 -19 -17 -4 -17 -5 -17 -6 0 0 9 -7 17
-15 17 -12 0 -13 -7 -5 -32z m219 -4 c0 -8 -4 -14 -10 -14 -5 0 -10 9 -10 21
0 11 5 17 10 14 6 -3 10 -13 10 -21z"/>
</g>
</svg>
