<?xml version="1.0" standalone="no"?>
<!DOCTYPE svg PUBLIC "-//W3C//DTD SVG 20010904//EN"
 "http://www.w3.org/TR/2001/REC-SVG-20010904/DTD/svg10.dtd">
<svg version="1.0" xmlns="http://www.w3.org/2000/svg"
 width="32.000000pt" height="32.000000pt" viewBox="0 0 32.000000 32.000000"
 preserveAspectRatio="xMidYMid meet">

<g transform="translate(0.000000,32.000000) scale(0.100000,-0.100000)"
fill="#000000" stroke="none">
<path d="M30 306 c-20 -9 -20 -16 -18 -155 l3 -146 119 -3 c118 -3 120 -2 148
25 28 27 28 28 28 149 0 118 -1 123 -22 130 -34 10 -234 10 -258 0z m270 -161
c0 -78 -2 -85 -20 -85 -13 0 -22 -9 -26 -25 l-6 -26 -112 3 -111 3 -3 108 -3
107 141 0 140 0 0 -85z"/>
<path d="M50 150 c0 -5 5 -10 10 -10 6 0 10 -11 10 -25 0 -14 5 -25 10 -25 6
0 10 11 10 24 0 36 27 41 34 5 5 -24 10 -29 35 -29 29 0 41 14 41 51 0 10 -7
19 -15 19 -9 0 -15 -9 -15 -25 0 -14 -4 -25 -10 -25 -5 0 -10 11 -10 25 0 23
-3 25 -50 25 -27 0 -50 -4 -50 -10z"/>
<path d="M210 125 c0 -32 2 -35 30 -35 35 0 41 19 8 21 -22 1 -22 1 2 9 23 7
24 8 6 15 -19 8 -19 9 0 16 15 6 12 8 -13 8 -31 1 -33 -1 -33 -34z"/>
</g>
</svg>
