<?xml version="1.0" standalone="no"?>
<!DOCTYPE svg PUBLIC "-//W3C//DTD SVG 20010904//EN"
 "http://www.w3.org/TR/2001/REC-SVG-20010904/DTD/svg10.dtd">
<svg version="1.0" xmlns="http://www.w3.org/2000/svg"
 width="32.000000pt" height="32.000000pt" viewBox="0 0 32.000000 32.000000"
 preserveAspectRatio="xMidYMid meet">

<g transform="translate(0.000000,32.000000) scale(0.100000,-0.100000)"
fill="#000000" stroke="none">
<path d="M30 306 c-20 -9 -20 -16 -18 -155 l3 -146 119 -3 c118 -3 120 -2 148
25 28 27 28 28 28 149 0 118 -1 123 -22 130 -34 10 -234 10 -258 0z m270 -161
c0 -78 -2 -85 -20 -85 -13 0 -22 -9 -26 -25 l-6 -26 -112 3 -111 3 -3 108 -3
107 141 0 140 0 0 -85z"/>
<path d="M140 156 c-6 -8 -10 -25 -8 -38 4 -30 46 -38 65 -12 12 16 13 16 13
1 0 -9 7 -17 15 -17 8 0 15 8 15 18 1 16 1 16 11 0 18 -31 39 -22 39 17 0 24
-5 35 -15 35 -8 0 -15 -5 -15 -10 0 -6 -8 -5 -20 2 -17 11 -22 11 -29 0 -6
-10 -10 -10 -21 3 -16 19 -34 19 -50 1z m40 -32 c0 -8 -7 -14 -15 -14 -15 0
-21 21 -9 33 10 9 24 -2 24 -19z"/>
<path d="M30 125 c0 -34 13 -47 23 -22 4 10 6 10 6 0 1 -19 29 -15 34 5 4 16
5 16 6 0 2 -34 21 -18 21 17 0 38 -21 48 -38 19 -8 -15 -10 -15 -15 0 -12 31
-37 18 -37 -19z"/>
</g>
</svg>
