<?xml version="1.0" standalone="no"?>
<!DOCTYPE svg PUBLIC "-//W3C//DTD SVG 20010904//EN"
 "http://www.w3.org/TR/2001/REC-SVG-20010904/DTD/svg10.dtd">
<svg version="1.0" xmlns="http://www.w3.org/2000/svg"
 width="32.000000pt" height="32.000000pt" viewBox="0 0 32.000000 32.000000"
 preserveAspectRatio="xMidYMid meet">

<g transform="translate(0.000000,32.000000) scale(0.100000,-0.100000)"
fill="#000000" stroke="none">
<path d="M80 288 c0 -5 -6 -8 -14 -8 -32 0 -46 -42 -46 -132 0 -122 7 -128
140 -128 133 0 140 6 140 128 0 90 -14 132 -46 132 -8 0 -14 3 -14 8 0 4 -36
7 -80 7 -44 0 -80 -3 -80 -7z m210 -146 c0 -104 -9 -112 -130 -112 -121 0
-130 8 -130 112 l0 68 130 0 130 0 0 -68z"/>
<path d="M100 125 c0 -22 2 -24 14 -13 9 8 10 15 4 19 -6 4 -5 9 3 12 10 4 9
6 -3 6 -13 1 -18 -7 -18 -24z"/>
<path d="M150 128 c0 -17 6 -24 20 -24 14 0 18 6 16 21 -4 30 -36 33 -36 3z"/>
<path d="M212 125 c0 -16 2 -22 5 -12 2 9 2 23 0 30 -3 6 -5 -1 -5 -18z"/>
</g>
</svg>
