<?xml version="1.0" standalone="no"?>
<!DOCTYPE svg PUBLIC "-//W3C//DTD SVG 20010904//EN"
 "http://www.w3.org/TR/2001/REC-SVG-20010904/DTD/svg10.dtd">
<svg version="1.0" xmlns="http://www.w3.org/2000/svg"
 width="32.000000pt" height="32.000000pt" viewBox="0 0 32.000000 32.000000"
 preserveAspectRatio="xMidYMid meet">

<g transform="translate(0.000000,32.000000) scale(0.100000,-0.100000)"
fill="#000000" stroke="none">
<path d="M30 306 c-20 -9 -20 -16 -18 -155 l3 -146 119 -3 c118 -3 120 -2 148
25 28 27 28 28 28 149 0 118 -1 123 -22 130 -34 10 -234 10 -258 0z m270 -161
c0 -78 -2 -85 -20 -85 -13 0 -22 -9 -26 -25 l-6 -26 -112 3 -111 3 -3 108 -3
107 141 0 140 0 0 -85z"/>
<path d="M40 150 c0 -5 5 -10 10 -10 6 0 10 -11 10 -25 0 -16 6 -25 15 -25 9
0 15 9 15 25 0 14 5 25 10 25 6 0 10 5 10 10 0 6 -16 10 -35 10 -19 0 -35 -4
-35 -10z"/>
<path d="M120 125 c0 -19 5 -35 10 -35 6 0 10 7 10 15 0 8 5 15 10 15 6 0 13
-7 16 -15 11 -27 24 -16 24 20 0 19 -4 35 -10 35 -5 0 -10 -4 -10 -10 0 -5 -7
-10 -15 -10 -8 0 -15 5 -15 10 0 6 -4 10 -10 10 -5 0 -10 -16 -10 -35z"/>
<path d="M202 128 c3 -29 7 -33 34 -36 26 -3 33 1 38 20 9 36 7 48 -9 48 -9 0
-15 -9 -15 -25 0 -14 -4 -25 -10 -25 -5 0 -10 11 -10 25 0 16 -6 25 -16 25
-11 0 -14 -8 -12 -32z"/>
</g>
</svg>
